<svg width="2255" xmlns="http://www.w3.org/2000/svg" xmlns:xlink="http://www.w3.org/1999/xlink" viewBox="0 0 2255 804" xmlns:ev="http://www.w3.org/2001/xml-events" height="804"><defs/><g id="page1" transform="translate(5.5,5.5)"><rect fill="#ffffff" y="0" width="2245" height="794" x="0"/><g id="group1" transform="translate(38.00,38.00)"><g id="shape2" transform="translate(0.00,34.50)"><path fill="#ffffff" d="M113.0,37.0L113.0,.0L.0,.0L.0,37.0L113.0,37.0z" fill-rule="nonzero" stroke-width="3" stroke="#323232"/><text style="fill:#191919;font-family:Arial;font-size:11.00pt" xml:space="preserve"><tspan y="15.1" x="42.9">obj2</tspan><tspan y="32.7" x="24.5">add: 2000</tspan></text></g><path fill="#ffffff" d="M113.0,37.0L113.0,.0L.0,.0L.0,37.0L113.0,37.0z" fill-rule="nonzero" stroke-width="3" id="shape3" transform="translate(0.00,71.50)" stroke="#323232"/><path fill="#ffffff" d="M113.0,37.0L113.0,.0L.0,.0L.0,37.0L113.0,37.0z" fill-rule="nonzero" stroke-width="3" id="shape4" transform="translate(0.00,181.50)" stroke="#323232"/><path fill="#ffffff" d="M113.0,37.0L113.0,.0L.0,.0L.0,37.0L113.0,37.0z" fill-rule="nonzero" stroke-width="3" id="shape5" transform="translate(0.00,144.50)" stroke="#323232"/><path fill="#ffffff" d="M113.0,37.0L113.0,.0L.0,.0L.0,37.0L113.0,37.0z" fill-rule="nonzero" stroke-width="3" id="shape6" transform="translate(0.00,108.00)" stroke="#323232"/><g id="shape7"><path fill="#ffffff" d="M113.0,37.0L113.0,.0L.0,.0L.0,37.0L113.0,37.0z" fill-rule="nonzero" stroke-width="3" stroke="#323232"/><text style="fill:#191919;font-family:Arial;font-size:11.00pt" xml:space="preserve"><tspan y="15.1" x="42.9">obj1</tspan><tspan y="32.7" x="24.5">add: 1000</tspan></text></g></g><g id="group8" transform="translate(226.50,38.00)"><g id="shape9" transform="translate(0.00,34.50)"><path fill="#ffffff" d="M151.5,37.0L151.5,.0L.0,.0L.0,37.0L151.5,37.0z" fill-rule="nonzero" stroke-width="3" stroke="#323232"/><text style="fill:#191919;font-family:Arial;font-size:11.00pt" xml:space="preserve"><tspan y="23.6" x="47.8">price = 0</tspan></text></g><g id="shape10" transform="translate(0.00,71.50)"><path fill="#ffffff" d="M151.5,37.0L151.5,.0L.0,.0L.0,37.0L151.5,37.0z" fill-rule="nonzero" stroke-width="3" stroke="#323232"/><text style="fill:#191919;font-family:Arial;font-size:11.00pt" xml:space="preserve"><tspan y="23.6" x="39.0">builder = " "</tspan></text></g><g id="shape11" transform="translate(0.00,181.50)"><path fill="#ffffff" d="M151.5,37.0L151.5,.0L.0,.0L.0,37.0L151.5,37.0z" fill-rule="nonzero" stroke-width="3" stroke="#323232"/><text style="fill:#191919;font-family:Arial;font-size:11.00pt" xml:space="preserve"><tspan y="23.6" x="31.8">topWood = " "</tspan></text></g><g id="shape12" transform="translate(0.00,144.50)"><path fill="#ffffff" d="M151.5,37.0L151.5,.0L.0,.0L.0,37.0L151.5,37.0z" fill-rule="nonzero" stroke-width="3" stroke="#323232"/><text style="fill:#191919;font-family:Arial;font-size:11.00pt" xml:space="preserve"><tspan y="23.6" x="26.6">backWood = " "</tspan></text></g><g id="shape13" transform="translate(0.00,108.00)"><path fill="#ffffff" d="M151.5,37.0L151.5,.0L.0,.0L.0,37.0L151.5,37.0z" fill-rule="nonzero" stroke-width="3" stroke="#323232"/><text style="fill:#191919;font-family:Arial;font-size:11.00pt" xml:space="preserve"><tspan y="23.6" x="41.4">model = " "</tspan></text></g><g id="shape14"><path fill="#ffffff" d="M151.5,37.0L151.5,.0L.0,.0L.0,37.0L151.5,37.0z" fill-rule="nonzero" stroke-width="3" stroke="#323232"/><text style="fill:#191919;font-family:Arial;font-size:11.00pt" xml:space="preserve"><tspan y="23.6" x="18.1">serialNumber = " "</tspan></text></g></g><g id="shape15" transform="translate(38.00,302.00)"><text style="fill:#191919;font-family:Arial;font-size:11.00pt" xml:space="preserve"><tspan y="21.6" x="38.5">Stack</tspan></text></g><g id="shape16" transform="translate(330.50,302.00)"><text style="fill:#191919;font-family:Arial;font-size:11.00pt" xml:space="preserve"><tspan y="21.6" x="39.3">Heap</tspan></text></g><g id="shape17" transform="translate(151.00,56.50)"><path d="M.0,.0L43.5,.0L43.5,89.3L64.5,89.3" fill="none" stroke-width="3" stroke="#191919"/><path fill="#191919" d="M64.5,83.8L75.5,89.3L64.5,94.7L64.5,83.8" stroke-linecap="round" stroke-width="1" stroke="#191919"/></g><g id="group18" transform="translate(401.00,38.00)"><g id="shape19" transform="translate(0.00,34.50)"><path fill="#ffffff" d="M166.0,37.0L166.0,.0L.0,.0L.0,37.0L166.0,37.0z" fill-rule="nonzero" stroke-width="3" stroke="#323232"/><text style="fill:#191919;font-family:Arial;font-size:11.00pt" xml:space="preserve"><tspan y="23.6" x="43.0">price = 2000</tspan></text></g><g id="shape20" transform="translate(0.00,71.50)"><path fill="#ffffff" d="M166.0,37.0L166.0,.0L.0,.0L.0,37.0L166.0,37.0z" fill-rule="nonzero" stroke-width="3" stroke="#323232"/><text style="fill:#191919;font-family:Arial;font-size:11.00pt" xml:space="preserve"><tspan y="23.6" x="31.8">builder = "Sony"</tspan></text></g><g id="shape21" transform="translate(0.00,181.50)"><path fill="#ffffff" d="M166.0,37.0L166.0,.0L.0,.0L.0,37.0L166.0,37.0z" fill-rule="nonzero" stroke-width="3" stroke="#323232"/><text style="fill:#191919;font-family:Arial;font-size:11.00pt" xml:space="preserve"><tspan y="23.6" x="10.6">topWood = "softWood"</tspan></text></g><g id="shape22" transform="translate(0.00,144.50)"><path fill="#ffffff" d="M166.0,37.0L166.0,.0L.0,.0L.0,37.0L166.0,37.0z" fill-rule="nonzero" stroke-width="3" stroke="#323232"/><text style="fill:#191919;font-family:Arial;font-size:11.00pt" xml:space="preserve"><tspan y="15.1" x="42.6">backWood = </tspan><tspan y="32.7" x="45.0">"hardWood"</tspan></text></g><g id="shape23" transform="translate(0.00,108.00)"><path fill="#ffffff" d="M166.0,37.0L166.0,.0L.0,.0L.0,37.0L166.0,37.0z" fill-rule="nonzero" stroke-width="3" stroke="#323232"/><text style="fill:#191919;font-family:Arial;font-size:11.00pt" xml:space="preserve"><tspan y="23.6" x="19.0">model = "Model123"</tspan></text></g><g id="shape24"><path fill="#ffffff" d="M166.0,37.0L166.0,.0L.0,.0L.0,37.0L166.0,37.0z" fill-rule="nonzero" stroke-width="3" stroke="#323232"/><text style="fill:#191919;font-family:Arial;font-size:11.00pt" xml:space="preserve"><tspan y="23.6" x="9.8">serialNumber = "G123"</tspan></text></g></g><g id="shape25" transform="translate(151.00,94.07)"><path d="M.0,.0L23.0,.0L23.0,194.4L333.0,194.4L333.0,173.4" fill="none" stroke-width="3" stroke="#191919"/><path fill="#191919" d="M327.5,173.4L333.0,162.4L338.5,173.4L327.5,173.4" stroke-linecap="round" stroke-width="1" stroke="#191919"/></g><g id="group26" transform="translate(680.00,38.00)"><g id="shape27" transform="translate(0.00,34.50)"><path fill="#ffffff" d="M113.0,37.0L113.0,.0L.0,.0L.0,37.0L113.0,37.0z" fill-rule="nonzero" stroke-width="3" stroke="#323232"/><text style="fill:#191919;font-family:Arial;font-size:11.00pt" xml:space="preserve"><tspan y="15.1" x="42.9">obj2</tspan><tspan y="32.7" x="24.5">add: 2000</tspan></text></g><path fill="#ffffff" d="M113.0,37.0L113.0,.0L.0,.0L.0,37.0L113.0,37.0z" fill-rule="nonzero" stroke-width="3" id="shape28" transform="translate(0.00,71.50)" stroke="#323232"/><path fill="#ffffff" d="M113.0,37.0L113.0,.0L.0,.0L.0,37.0L113.0,37.0z" fill-rule="nonzero" stroke-width="3" id="shape29" transform="translate(0.00,181.50)" stroke="#323232"/><path fill="#ffffff" d="M113.0,37.0L113.0,.0L.0,.0L.0,37.0L113.0,37.0z" fill-rule="nonzero" stroke-width="3" id="shape30" transform="translate(0.00,144.50)" stroke="#323232"/><path fill="#ffffff" d="M113.0,37.0L113.0,.0L.0,.0L.0,37.0L113.0,37.0z" fill-rule="nonzero" stroke-width="3" id="shape31" transform="translate(0.00,108.00)" stroke="#323232"/><g id="shape32"><path fill="#ffffff" d="M113.0,37.0L113.0,.0L.0,.0L.0,37.0L113.0,37.0z" fill-rule="nonzero" stroke-width="3" stroke="#323232"/><text style="fill:#191919;font-family:Arial;font-size:11.00pt" xml:space="preserve"><tspan y="15.1" x="42.9">obj1</tspan><tspan y="32.7" x="24.5">add: 1000</tspan></text></g></g><g id="group33" transform="translate(868.50,38.00)"><g id="shape34" transform="translate(0.00,34.50)"><path fill="#ffffff" d="M151.5,37.0L151.5,.0L.0,.0L.0,37.0L151.5,37.0z" fill-rule="nonzero" stroke-width="3" stroke="#323232"/><text style="fill:#191919;font-family:Arial;font-size:11.00pt" xml:space="preserve"><tspan y="23.6" x="35.8">price = 3000</tspan></text></g><g id="shape35" transform="translate(0.00,71.50)"><path fill="#ffffff" d="M151.5,37.0L151.5,.0L.0,.0L.0,37.0L151.5,37.0z" fill-rule="nonzero" stroke-width="3" stroke="#323232"/><text style="fill:#191919;font-family:Arial;font-size:11.00pt" xml:space="preserve"><tspan y="23.6" x="39.0">builder = " "</tspan></text></g><g id="shape36" transform="translate(0.00,181.50)"><path fill="#ffffff" d="M151.5,37.0L151.5,.0L.0,.0L.0,37.0L151.5,37.0z" fill-rule="nonzero" stroke-width="3" stroke="#323232"/><text style="fill:#191919;font-family:Arial;font-size:11.00pt" xml:space="preserve"><tspan y="23.6" x="31.8">topWood = " "</tspan></text></g><g id="shape37" transform="translate(0.00,144.50)"><path fill="#ffffff" d="M151.5,37.0L151.5,.0L.0,.0L.0,37.0L151.5,37.0z" fill-rule="nonzero" stroke-width="3" stroke="#323232"/><text style="fill:#191919;font-family:Arial;font-size:11.00pt" xml:space="preserve"><tspan y="23.6" x="26.6">backWood = " "</tspan></text></g><g id="shape38" transform="translate(0.00,108.00)"><path fill="#ffffff" d="M151.5,37.0L151.5,.0L.0,.0L.0,37.0L151.5,37.0z" fill-rule="nonzero" stroke-width="3" stroke="#323232"/><text style="fill:#191919;font-family:Arial;font-size:11.00pt" xml:space="preserve"><tspan y="23.6" x="41.4">model = " "</tspan></text></g><g id="shape39"><path fill="#ffffff" d="M151.5,37.0L151.5,.0L.0,.0L.0,37.0L151.5,37.0z" fill-rule="nonzero" stroke-width="3" stroke="#323232"/><text style="fill:#191919;font-family:Arial;font-size:11.00pt" xml:space="preserve"><tspan y="23.6" x="18.1">serialNumber = " "</tspan></text></g></g><g id="shape40" transform="translate(680.00,302.00)"><text style="fill:#191919;font-family:Arial;font-size:11.00pt" xml:space="preserve"><tspan y="21.6" x="38.5">Stack</tspan></text></g><g id="shape41" transform="translate(972.50,302.00)"><text style="fill:#191919;font-family:Arial;font-size:11.00pt" xml:space="preserve"><tspan y="21.6" x="39.3">Heap</tspan></text></g><g id="shape42" transform="translate(793.00,56.50)"><path d="M.0,.0L43.5,.0L43.5,89.3L53.5,89.3C53.5,85.9,56.2,83.3,59.5,83.3C62.8,83.3,65.5,85.9,65.5,89.3" fill="none" stroke-width="3" stroke="#191919"/><path fill="#191919" d="M64.5,83.8L75.5,89.3L64.5,94.7L64.5,83.8" stroke-linecap="round" stroke-width="1" stroke="#191919"/></g><g id="group43" transform="translate(1043.00,38.00)"><g id="shape44" transform="translate(0.00,34.50)"><path fill="#ffffff" d="M166.0,37.0L166.0,.0L.0,.0L.0,37.0L166.0,37.0z" fill-rule="nonzero" stroke-width="3" stroke="#323232"/><text style="fill:#191919;font-family:Arial;font-size:11.00pt" xml:space="preserve"><tspan y="23.6" x="43.0">price = 2000</tspan></text></g><g id="shape45" transform="translate(0.00,71.50)"><path fill="#ffffff" d="M166.0,37.0L166.0,.0L.0,.0L.0,37.0L166.0,37.0z" fill-rule="nonzero" stroke-width="3" stroke="#323232"/><text style="fill:#191919;font-family:Arial;font-size:11.00pt" xml:space="preserve"><tspan y="23.6" x="31.8">builder = "Sony"</tspan></text></g><g id="shape46" transform="translate(0.00,181.50)"><path fill="#ffffff" d="M166.0,37.0L166.0,.0L.0,.0L.0,37.0L166.0,37.0z" fill-rule="nonzero" stroke-width="3" stroke="#323232"/><text style="fill:#191919;font-family:Arial;font-size:11.00pt" xml:space="preserve"><tspan y="23.6" x="10.6">topWood = "softWood"</tspan></text></g><g id="shape47" transform="translate(0.00,144.50)"><path fill="#ffffff" d="M166.0,37.0L166.0,.0L.0,.0L.0,37.0L166.0,37.0z" fill-rule="nonzero" stroke-width="3" stroke="#323232"/><text style="fill:#191919;font-family:Arial;font-size:11.00pt" xml:space="preserve"><tspan y="15.1" x="42.6">backWood = </tspan><tspan y="32.7" x="45.0">"hardWood"</tspan></text></g><g id="shape48" transform="translate(0.00,108.00)"><path fill="#ffffff" d="M166.0,37.0L166.0,.0L.0,.0L.0,37.0L166.0,37.0z" fill-rule="nonzero" stroke-width="3" stroke="#323232"/><text style="fill:#191919;font-family:Arial;font-size:11.00pt" xml:space="preserve"><tspan y="23.6" x="19.0">model = "Model123"</tspan></text></g><g id="shape49"><path fill="#ffffff" d="M166.0,37.0L166.0,.0L.0,.0L.0,37.0L166.0,37.0z" fill-rule="nonzero" stroke-width="3" stroke="#323232"/><text style="fill:#191919;font-family:Arial;font-size:11.00pt" xml:space="preserve"><tspan y="23.6" x="9.8">serialNumber = "G123"</tspan></text></g></g><g id="shape50" transform="translate(793.00,94.07)"><path d="M.0,.0L23.0,.0L23.0,194.4L53.5,194.4C53.5,191.1,56.2,188.4,59.5,188.4C62.8,188.4,65.5,191.1,65.5,194.4L333.0,194.4L333.0,173.4" fill="none" stroke-width="3" stroke="#191919"/><path fill="#191919" d="M327.5,173.4L333.0,162.4L338.5,173.4L327.5,173.4" stroke-linecap="round" stroke-width="1" stroke="#191919"/></g><g id="shape51" transform="translate(680.00,380.50)"><path fill="#ffffff" d="M151.0,48.0L151.0,.0L.0,.0L.0,48.0L151.0,48.0z" fill-rule="nonzero" stroke-width="3" stroke="#323232"/><text style="fill:#191919;font-family:Arial;font-size:11.00pt" xml:space="preserve"><tspan y="29.1" x="13.1">obj1.setPrice(3000)</tspan></text></g><g id="shape52" transform="translate(831.00,404.50)"><path d="M.0,.0L21.5,.0L21.5,-313.5L26.5,-313.5" fill="none" stroke-width="3" stroke="#191919"/><path fill="#191919" d="M26.5,-319.0L37.5,-313.5L26.5,-308.0L26.5,-319.0" stroke-linecap="round" stroke-width="1" stroke="#191919"/></g><g id="shape53" transform="translate(242.25,234.00)"><text style="fill:#191919;font-family:Arial;font-size:12.00pt" xml:space="preserve"><tspan y="45.7" x="42.4">1000</tspan></text></g><g id="shape54" transform="translate(424.00,234.00)"><text style="fill:#191919;font-family:Arial;font-size:12.00pt" xml:space="preserve"><tspan y="45.7" x="42.4">2000</tspan></text></g><g id="shape55" transform="translate(884.25,234.00)"><text style="fill:#191919;font-family:Arial;font-size:12.00pt" xml:space="preserve"><tspan y="45.7" x="42.4">1000</tspan></text></g><g id="shape56" transform="translate(1066.00,234.00)"><text style="fill:#191919;font-family:Arial;font-size:12.00pt" xml:space="preserve"><tspan y="45.7" x="42.4">2000</tspan></text></g></g></svg>